<svg xmlns="http://www.w3.org/2000/svg" xmlns:xlink="http://www.w3.org/1999/xlink" viewBox="0 0 390.53 449"><defs><style>.cls-1{fill:url(#Degradado_sin_nombre_26);}.cls-2{fill:url(#Degradado_sin_nombre_26-2);}</style><linearGradient id="Degradado_sin_nombre_26" x1="23.4" y1="409.48" x2="243.22" y2="75.17" gradientUnits="userSpaceOnUse"><stop offset="0" stop-color="#3cdeef"/><stop offset="0.11" stop-color="#3bd9eb"/><stop offset="0.25" stop-color="#37cbdf"/><stop offset="0.39" stop-color="#30b3cb"/><stop offset="0.54" stop-color="#2892af"/><stop offset="0.69" stop-color="#1c688b"/><stop offset="0.85" stop-color="#0e3560"/><stop offset="0.99" stop-color="#003"/></linearGradient><linearGradient id="Degradado_sin_nombre_26-2" x1="38.56" y1="419.45" x2="258.39" y2="85.14" xlink:href="#Degradado_sin_nombre_26"/></defs><g id="Layer_2" data-name="Layer 2"><g id="Capa_1" data-name="Capa 1"><path class="cls-1" d="M365,87.86A180.62,180.62,0,0,0,215.85,0h-128A87.86,87.86,0,0,0,0,87.86H204c1.42-.06,2.85-.1,4.28-.1s2.87,0,4.29.1c66,3,114,75,73.56,145.6-12.55,21.89-43.61,39.72-68.84,39.72H200.46v88h0a112.6,112.6,0,0,1-112.6-112.6V132.38H0V262.24C0,365.38,83.62,449,186.76,449h13.7V361.24h9.4c2,0,4,0,6-.1A180.62,180.62,0,0,0,365,273.28l.06-.1A180.86,180.86,0,0,0,365,87.86Z"/><circle class="cls-2" cx="195.31" cy="181.06" r="43.53"/></g></g></svg>