<svg xmlns="http://www.w3.org/2000/svg" viewBox="0 0 192.5 35"><defs><style>.cls-1{fill:#3cdeef;}.cls-1,.cls-2{stroke:#606060;stroke-miterlimit:10;}.cls-2,.cls-4{fill:#fff;}.cls-3{fill:#606060;}</style></defs><g id="Layer_2" data-name="Layer 2"><g id="Capa_1" data-name="Capa 1"><rect class="cls-1" x="1" y="0.5" width="191" height="34" rx="17"/><rect class="cls-2" x="0.5" y="0.5" width="149" height="34" rx="17"/><path class="cls-3" d="M20.29,21.14l-1.18,3.93H17.72a.67.67,0,0,1-.52-.23.92.92,0,0,1-.2-.59,1,1,0,0,1,0-.17,1.62,1.62,0,0,1,0-.19l.82-2.75H16.16L15.31,24a1.58,1.58,0,0,1-.23.47,1.55,1.55,0,0,1-.35.33,1.28,1.28,0,0,1-.42.17,1.74,1.74,0,0,1-.45.06H12.53l1.2-3.93h-.92A.78.78,0,0,1,12.3,21a.55.55,0,0,1-.18-.46,1.69,1.69,0,0,1,.1-.55l.28-.91h1.77L15,16.64H13l.38-1.2a1.1,1.1,0,0,1,.46-.65,1.86,1.86,0,0,1,1-.2h.74l.89-3a1.16,1.16,0,0,1,.52-.7,1.46,1.46,0,0,1,.84-.25h1.37L18,14.59h1.71l1.19-3.93h1.33a.88.88,0,0,1,.61.2.64.64,0,0,1,.22.51.75.75,0,0,1,0,.26l-.88,3H24l-.39,1.19a1.2,1.2,0,0,1-.47.65,1.7,1.7,0,0,1-.94.21h-.69l-.73,2.43H22a.77.77,0,0,1,.51.14.54.54,0,0,1,.19.46,2.07,2.07,0,0,1-.1.56l-.28.91Zm-3.61-2.07h1.73l.72-2.43h-1.7Z"/><path class="cls-3" d="M29.43,22.49h4.85L34,25.07H25.88l1.78-14.43h3.23Z"/><path class="cls-3" d="M40.35,25.07H37.1l1.76-14.43h3.25Z"/><path class="cls-3" d="M48.92,16.54h.48a1.62,1.62,0,0,0,.61-.11,1,1,0,0,0,.44-.36l3.43-4.79a1.26,1.26,0,0,1,.63-.51,2.37,2.37,0,0,1,.83-.13h2.8L53.6,16.53a2.62,2.62,0,0,1-.48.51,2.78,2.78,0,0,1-.51.33,2.1,2.1,0,0,1,.59.37,1.87,1.87,0,0,1,.44.63l3,6.7H53.82a2.11,2.11,0,0,1-.47,0,1.82,1.82,0,0,1-.33-.11.82.82,0,0,1-.22-.19,1.1,1.1,0,0,1-.15-.26L50.41,19.4A.81.81,0,0,0,50,19a1.67,1.67,0,0,0-.66-.11h-.74l-.76,6.18H44.67l1.76-14.43h3.23Z"/><path class="cls-3" d="M69.54,13.12H64.21l-.44,3.49h4.09L67.54,19H63.47L63,22.58h5.37l-.31,2.49H59.48l1.78-14.43h8.6Z"/><path class="cls-3" d="M84.15,25.07H81.66a1.13,1.13,0,0,1-.67-.19.75.75,0,0,1-.3-.51l-.45-2.6h-4.9l-1.07,2.6a1.15,1.15,0,0,1-.43.49,1.23,1.23,0,0,1-.7.21H70.6l6.9-14.43h3.31Zm-7.91-5.5h3.63l-.71-4.12c-.06-.34-.12-.69-.19-1s-.13-.68-.17-1l-.21.54c-.09.2-.17.4-.26.59l-.23.53-.17.37Z"/><path class="cls-3" d="M90.64,20.21l-.59,4.86H86.84L88.6,10.64h4.77a6.85,6.85,0,0,1,2.21.31,4.19,4.19,0,0,1,1.5.86,3.24,3.24,0,0,1,.87,1.3,4.47,4.47,0,0,1,.28,1.61,6.43,6.43,0,0,1-.36,2.18,4.67,4.67,0,0,1-1.11,1.74,5.11,5.11,0,0,1-1.88,1.15,7.79,7.79,0,0,1-2.69.42ZM91.53,13,91,17.78H92.5a3.07,3.07,0,0,0,1.17-.2,2,2,0,0,0,.76-.58,2.48,2.48,0,0,0,.42-.88A4.49,4.49,0,0,0,95,15a2.79,2.79,0,0,0-.11-.79,1.7,1.7,0,0,0-.36-.61,1.44,1.44,0,0,0-.6-.4,2.19,2.19,0,0,0-.85-.15Z"/><path class="cls-3" d="M104.06,19.68l-.66,5.39h-3.21L102,10.64h4.38a7.79,7.79,0,0,1,2.26.28,4.23,4.23,0,0,1,1.53.78,2.9,2.9,0,0,1,.87,1.17,3.92,3.92,0,0,1,.27,1.47,5.37,5.37,0,0,1-.21,1.52,4.71,4.71,0,0,1-1.61,2.37,5.37,5.37,0,0,1-1.35.76,2.73,2.73,0,0,1,.56.4,1.5,1.5,0,0,1,.41.6l2.1,5.08h-2.91a1.29,1.29,0,0,1-.68-.16.88.88,0,0,1-.39-.46l-1.56-4.26a.79.79,0,0,0-.29-.4,1.15,1.15,0,0,0-.54-.11Zm.83-6.64-.55,4.41h1.18a3,3,0,0,0,1.18-.21,2.2,2.2,0,0,0,.79-.57,2.27,2.27,0,0,0,.43-.83,3.66,3.66,0,0,0,.13-1,2.17,2.17,0,0,0-.11-.74,1.36,1.36,0,0,0-.38-.56,1.7,1.7,0,0,0-.63-.37A3,3,0,0,0,106,13Z"/><path class="cls-3" d="M128.09,16.93a9.16,9.16,0,0,1-.27,2.24,8.41,8.41,0,0,1-.78,2,8,8,0,0,1-1.2,1.67,7.77,7.77,0,0,1-1.59,1.28,7.46,7.46,0,0,1-1.92.82,7.67,7.67,0,0,1-2.16.3,6.29,6.29,0,0,1-2.56-.5,5.74,5.74,0,0,1-1.93-1.37,6,6,0,0,1-1.21-2,7.47,7.47,0,0,1-.43-2.53,9.1,9.1,0,0,1,.28-2.24,8.56,8.56,0,0,1,.77-2,8,8,0,0,1,1.21-1.67,7.61,7.61,0,0,1,1.6-1.29A7.85,7.85,0,0,1,122,10.48a6.34,6.34,0,0,1,2.55.5,5.56,5.56,0,0,1,1.92,1.37,6.18,6.18,0,0,1,1.21,2.05A7.5,7.5,0,0,1,128.09,16.93Zm-3.31.08a5.78,5.78,0,0,0-.21-1.62,3.51,3.51,0,0,0-.63-1.25,2.67,2.67,0,0,0-1-.8,3.11,3.11,0,0,0-1.35-.29,3.67,3.67,0,0,0-1.77.42,3.75,3.75,0,0,0-1.33,1.15,5.21,5.21,0,0,0-.84,1.79,8.34,8.34,0,0,0-.3,2.31,5.76,5.76,0,0,0,.21,1.61,3.51,3.51,0,0,0,.61,1.24,2.69,2.69,0,0,0,1,.8,3,3,0,0,0,1.35.28,3.82,3.82,0,0,0,1.78-.4,4,4,0,0,0,1.34-1.15,5.49,5.49,0,0,0,.84-1.79A8.26,8.26,0,0,0,124.78,17Z"/><circle class="cls-4" cx="173" cy="17.5" r="15"/><path class="cls-3" d="M160.34,18.24V16.76a1.42,1.42,0,0,0,0-.22,11.94,11.94,0,0,1,1.44-5,12.48,12.48,0,0,1,9-6.52c.49-.09,1-.13,1.47-.2h1.48l.54.06A12.7,12.7,0,0,1,185.64,17a11.86,11.86,0,0,1-1.48,6.47,12.38,12.38,0,0,1-10.63,6.69,11.79,11.79,0,0,1-6.47-1.46,12.48,12.48,0,0,1-6.52-9C160.45,19.22,160.41,18.73,160.34,18.24Zm13.11-7.6h0v1.9a.36.36,0,0,0,.17.35c1.27,1,2.55,2,3.81,3a.37.37,0,0,0,.4.07c1.29-.43,2.57-.87,3.86-1.29a.38.38,0,0,0,.3-.33c.25-1.1.51-2.2.76-3.29a.5.5,0,0,0-.06-.34A11.58,11.58,0,0,0,178,6.82a.41.41,0,0,0-.31,0l-4.06,1.61a.26.26,0,0,0-.18.3Zm-.9,0v-2a.22.22,0,0,0-.16-.26l-4.11-1.61a.39.39,0,0,0-.28,0,11.69,11.69,0,0,0-4.71,4,.37.37,0,0,0,0,.27c.26,1.13.53,2.26.79,3.39a.3.3,0,0,0,.23.25l4,1.3a.35.35,0,0,0,.3-.05c1.3-1,2.59-2.06,3.88-3.1a.43.43,0,0,0,.14-.3C172.56,11.92,172.55,11.27,172.55,10.63Zm12.2,8a1.36,1.36,0,0,0-.12-.18l-2.32-2.79a.23.23,0,0,0-.31-.09l-3.92,1.31a.38.38,0,0,0-.22.23c-.4,1.55-.78,3.1-1.16,4.66a.34.34,0,0,0,.06.26c.61.83,1.23,1.65,1.86,2.47a.31.31,0,0,0,.24.1c1.28-.19,2.57-.4,3.85-.61a.43.43,0,0,0,.26-.18c.38-.76.8-1.51,1.12-2.3A9.69,9.69,0,0,0,184.75,18.63Zm-23.51,0c0,.06,0,.08,0,.09a11.67,11.67,0,0,0,1.73,5,.51.51,0,0,0,.4.27l3.71.58a.28.28,0,0,0,.33-.13c.6-.8,1.21-1.6,1.8-2.41a.42.42,0,0,0,.06-.33c-.37-1.54-.75-3.07-1.14-4.6a.43.43,0,0,0-.22-.24L164,15.57a.24.24,0,0,0-.3.07l-2.36,2.85A.77.77,0,0,0,161.24,18.64ZM173,22.46h-2.75a.48.48,0,0,0-.32.15L168.16,25a.23.23,0,0,0,0,.32c.77,1.19,1.52,2.39,2.29,3.58a.54.54,0,0,0,.28.19,11.55,11.55,0,0,0,4.93-.08.44.44,0,0,0,.25-.2l2-3.45a.26.26,0,0,0,0-.36c-.59-.78-1.19-1.56-1.77-2.35a.41.41,0,0,0-.37-.18Z"/><path class="cls-4" d="M173.45,10.64V8.71a.26.26,0,0,1,.18-.3l4.06-1.61a.41.41,0,0,1,.31,0,11.58,11.58,0,0,1,4.69,3.94.5.5,0,0,1,.06.34c-.25,1.09-.51,2.19-.76,3.29a.38.38,0,0,1-.3.33c-1.29.42-2.57.86-3.86,1.29a.37.37,0,0,1-.4-.07c-1.26-1-2.54-2-3.81-3a.36.36,0,0,1-.17-.35v-1.9Z"/><path class="cls-4" d="M172.55,10.63c0,.64,0,1.29,0,1.93a.43.43,0,0,1-.14.3c-1.29,1-2.58,2.08-3.88,3.1a.35.35,0,0,1-.3.05l-4-1.3a.3.3,0,0,1-.23-.25c-.26-1.13-.53-2.26-.79-3.39a.37.37,0,0,1,0-.27,11.69,11.69,0,0,1,4.71-4,.39.39,0,0,1,.28,0l4.11,1.61a.22.22,0,0,1,.16.26Z"/><path class="cls-4" d="M184.75,18.63a9.69,9.69,0,0,1-.66,2.88c-.32.79-.74,1.54-1.12,2.3a.43.43,0,0,1-.26.18c-1.28.21-2.57.42-3.85.61a.31.31,0,0,1-.24-.1c-.63-.82-1.25-1.64-1.86-2.47a.34.34,0,0,1-.06-.26c.38-1.56.76-3.11,1.16-4.66a.38.38,0,0,1,.22-.23L182,15.57a.23.23,0,0,1,.31.09l2.32,2.79A1.36,1.36,0,0,1,184.75,18.63Z"/><path class="cls-4" d="M161.24,18.64a.77.77,0,0,1,.1-.15l2.36-2.85a.24.24,0,0,1,.3-.07l3.93,1.32a.43.43,0,0,1,.22.24c.39,1.53.77,3.06,1.14,4.6a.42.42,0,0,1-.06.33c-.59.81-1.2,1.61-1.8,2.41a.28.28,0,0,1-.33.13L163.39,24a.51.51,0,0,1-.4-.27,11.67,11.67,0,0,1-1.73-5S161.25,18.7,161.24,18.64Z"/><path class="cls-4" d="M173,22.46h2.69a.41.41,0,0,1,.37.18c.58.79,1.18,1.57,1.77,2.35a.26.26,0,0,1,0,.36l-2,3.45a.44.44,0,0,1-.25.2,11.55,11.55,0,0,1-4.93.08.54.54,0,0,1-.28-.19c-.77-1.19-1.52-2.39-2.29-3.58a.23.23,0,0,1,0-.32L170,22.62a.48.48,0,0,1,.32-.15Z"/></g></g></svg>