<svg id="Capa_1" data-name="Capa 1" xmlns="http://www.w3.org/2000/svg" viewBox="0 0 193.5 36"><defs><style>.cls-1{fill:#3cdeef;}.cls-1,.cls-2{stroke:#606060;stroke-miterlimit:10;}.cls-12,.cls-2{fill:#fff;}.cls-3{font-size:19.81px;font-family:Lato-BlackItalic, Lato;font-weight:800;font-style:italic;letter-spacing:0.1em;}.cls-13,.cls-3{fill:#606060;}.cls-4{letter-spacing:0.07em;}.cls-5{letter-spacing:0.1em;}.cls-6{letter-spacing:0.09em;}.cls-7{letter-spacing:0.11em;}.cls-8{letter-spacing:0.09em;}.cls-9{letter-spacing:0.08em;}.cls-10{letter-spacing:0.08em;}.cls-11{letter-spacing:0.1em;}</style></defs><rect class="cls-1" x="1.55" y="1.13" width="191" height="34" rx="17"/><rect class="cls-2" x="1.05" y="1.13" width="149" height="34" rx="17"/><text class="cls-3" transform="translate(12.55 25.7)">#<tspan class="cls-4" x="13.45" y="0">L</tspan><tspan class="cls-5" x="24.38" y="0">I</tspan><tspan class="cls-6" x="32.23" y="0">K</tspan><tspan class="cls-7" x="47.04" y="0">E</tspan><tspan class="cls-8" x="59.4" y="0">A</tspan><tspan class="cls-9" x="74.4" y="0">P</tspan><tspan class="cls-10" x="87.75" y="0">R</tspan><tspan class="cls-11" x="101.55" y="0">O</tspan></text><circle class="cls-12" cx="173.55" cy="18.13" r="15"/><path class="cls-13" d="M160.9,18.87V17.39c0-.07,0-.15,0-.22a11.89,11.89,0,0,1,1.44-5,12.48,12.48,0,0,1,9-6.52c.48-.09,1-.13,1.46-.2h1.49l.53.06A12.7,12.7,0,0,1,186.19,17.6a11.76,11.76,0,0,1-1.47,6.47,12.41,12.41,0,0,1-10.64,6.69,11.74,11.74,0,0,1-6.46-1.46,12.48,12.48,0,0,1-6.52-9C161,19.85,161,19.36,160.9,18.87ZM174,11.26h0c0,.64,0,1.27,0,1.91a.41.41,0,0,0,.17.35Q176.09,15,178,16.57a.37.37,0,0,0,.4.07c1.28-.44,2.57-.87,3.86-1.29a.38.38,0,0,0,.29-.33c.25-1.1.52-2.2.76-3.29a.45.45,0,0,0-.06-.34,11.72,11.72,0,0,0-4.68-3.95.5.5,0,0,0-.32,0L174.18,9a.27.27,0,0,0-.18.3C174,10,174,10.62,174,11.26Zm-.89,0c0-.65,0-1.3,0-1.95a.23.23,0,0,0-.17-.26l-4.11-1.61a.32.32,0,0,0-.27,0,11.78,11.78,0,0,0-4.72,4,.41.41,0,0,0-.05.27c.26,1.13.54,2.26.79,3.39a.3.3,0,0,0,.23.24l4,1.31a.35.35,0,0,0,.3-.05c1.3-1,2.6-2.06,3.88-3.1a.44.44,0,0,0,.15-.3C173.11,12.55,173.11,11.9,173.11,11.26Zm12.19,8s-.06-.11-.11-.18l-2.32-2.79a.24.24,0,0,0-.31-.1l-3.93,1.32a.43.43,0,0,0-.22.22c-.39,1.56-.78,3.11-1.16,4.67a.34.34,0,0,0,.06.26c.61.83,1.24,1.65,1.86,2.46a.3.3,0,0,0,.24.11c1.29-.19,2.57-.4,3.85-.61a.41.41,0,0,0,.26-.18c.39-.76.8-1.51,1.13-2.3A9.68,9.68,0,0,0,185.3,19.26Zm-23.5,0a.51.51,0,0,1,0,.09,11.8,11.8,0,0,0,1.73,5,.51.51,0,0,0,.4.27l3.71.58a.28.28,0,0,0,.33-.13c.6-.81,1.21-1.6,1.8-2.41a.44.44,0,0,0,.07-.33c-.38-1.54-.76-3.07-1.15-4.6a.38.38,0,0,0-.22-.24l-3.93-1.32a.21.21,0,0,0-.29.07l-2.37,2.85A1.47,1.47,0,0,0,161.8,19.27Zm11.77,3.82h-2.74a.51.51,0,0,0-.33.15l-1.78,2.37a.23.23,0,0,0,0,.32c.77,1.19,1.53,2.39,2.3,3.57a.45.45,0,0,0,.28.2,11.5,11.5,0,0,0,4.92-.08.41.41,0,0,0,.25-.2c.67-1.15,1.32-2.3,2-3.45a.26.26,0,0,0,0-.36c-.6-.78-1.19-1.56-1.78-2.35a.41.41,0,0,0-.37-.18C175.37,23.1,174.47,23.09,173.57,23.09Z"/><path class="cls-12" d="M174,11.26c0-.64,0-1.28,0-1.92a.27.27,0,0,1,.18-.3l4.06-1.61a.5.5,0,0,1,.32,0,11.72,11.72,0,0,1,4.68,4,.45.45,0,0,1,.06.34c-.24,1.09-.51,2.19-.76,3.29a.38.38,0,0,1-.29.33c-1.29.42-2.58.85-3.86,1.29a.37.37,0,0,1-.4-.07q-1.91-1.53-3.82-3.05a.41.41,0,0,1-.17-.35c0-.64,0-1.27,0-1.91Z"/><path class="cls-12" d="M173.11,11.26c0,.64,0,1.29,0,1.93a.44.44,0,0,1-.15.3c-1.28,1-2.58,2.08-3.88,3.1a.35.35,0,0,1-.3.05l-4-1.31a.3.3,0,0,1-.23-.24c-.25-1.13-.53-2.26-.79-3.39a.41.41,0,0,1,.05-.27,11.78,11.78,0,0,1,4.72-4,.32.32,0,0,1,.27,0l4.11,1.61a.23.23,0,0,1,.17.26C173.1,10,173.11,10.61,173.11,11.26Z"/><path class="cls-12" d="M185.3,19.26a9.68,9.68,0,0,1-.65,2.88c-.33.79-.74,1.54-1.13,2.3a.41.41,0,0,1-.26.18c-1.28.21-2.56.42-3.85.61a.3.3,0,0,1-.24-.11c-.62-.81-1.25-1.63-1.86-2.46a.34.34,0,0,1-.06-.26c.38-1.56.77-3.11,1.16-4.67a.43.43,0,0,1,.22-.22l3.93-1.32a.24.24,0,0,1,.31.1l2.32,2.79C185.24,19.15,185.28,19.23,185.3,19.26Z"/><path class="cls-12" d="M161.8,19.27a1.47,1.47,0,0,1,.09-.15l2.37-2.85a.21.21,0,0,1,.29-.07l3.93,1.32a.38.38,0,0,1,.22.24c.39,1.53.77,3.06,1.15,4.6a.44.44,0,0,1-.07.33c-.59.81-1.2,1.6-1.8,2.41a.28.28,0,0,1-.33.13l-3.71-.58a.51.51,0,0,1-.4-.27,11.8,11.8,0,0,1-1.73-5A.51.51,0,0,0,161.8,19.27Z"/><path class="cls-12" d="M173.57,23.09c.9,0,1.8,0,2.69,0a.41.41,0,0,1,.37.18c.59.79,1.18,1.57,1.78,2.35a.26.26,0,0,1,0,.36c-.66,1.15-1.31,2.3-2,3.45a.41.41,0,0,1-.25.2,11.5,11.5,0,0,1-4.92.08.45.45,0,0,1-.28-.2c-.77-1.18-1.53-2.38-2.3-3.57a.23.23,0,0,1,0-.32l1.78-2.37a.51.51,0,0,1,.33-.15Z"/></svg>